<?xml version="1.0" encoding="utf-8"?>
<!-- Generator: Adobe Illustrator 18.1.1, SVG Export Plug-In . SVG Version: 6.00 Build 0)  -->
<svg version="1.1" id="Layer_1" xmlns="http://www.w3.org/2000/svg" xmlns:xlink="http://www.w3.org/1999/xlink" x="0px" y="0px"
	 viewBox="0 0 960 560" enable-background="new 0 0 960 560" xml:space="preserve">
<path fill="#646464" d="M307.3,144.7h-39.7v308c0,21,16.3,37.3,37.3,37.3h308v-37.3H307.3V144.7z M652.7,67.7H384.3
	c-21,0-39.7,18.7-39.7,39.7v268.3c0,21,16.3,37.3,37.3,37.3h268.3c21,0,37.3-16.3,37.3-37.3V107.3C692.3,86.3,673.7,67.7,652.7,67.7
	L652.7,67.7z M615.3,261.3h-77v77H501v-77h-79.3v-39.7h77v-77H536v77h77v39.7H615.3z"/>
</svg>
