<?xml version="1.0" encoding="UTF-8"?>
<svg width="23px" height="14px" viewBox="0 0 23 14" version="1.1" xmlns="http://www.w3.org/2000/svg" xmlns:xlink="http://www.w3.org/1999/xlink">
    <!-- Generator: sketchtool 40.2 (33826) - http://www.bohemiancoding.com/sketch -->
    <title>11149003-90E6-4328-9B7B-468E3C2CCC92</title>
    <desc>Created with sketchtool.</desc>
    <defs></defs>
    <g id="Page-1" stroke="none" stroke-width="1" fill="none" fill-rule="evenodd">
        <g id="V06---Expanded-screen" transform="translate(-1155.000000, -790.000000)" fill="#539BE4">
            <g id="Group" transform="translate(370.000000, 240.000000)">
                <g id="Bottom-Row" transform="translate(753.000000, 521.000000)">
                    <g id="Save" transform="translate(32.000000, 26.000000)">
                        <path d="M0,5 L2,5 L2,3 L0,3 L0,5 L0,5 Z M4,3 L4,5 L15,5 L15,3 L4,3 L4,3 Z M19,11 L19,7 L17,7 L17,11 L13,11 L13,13 L17,13 L17,17 L19,17 L19,13 L23,13 L23,11 L19,11 L19,11 Z M4,13 L11,13 L11,11 L4,11 L4,13 L4,13 Z M15,9 L15,7 L4,7 L4,9 L15,9 Z M0,13 L2,13 L2,11 L0,11 L0,13 L0,13 Z M0,9 L2,9 L2,7 L0,7 L0,9 L0,9 Z" id="New-View"></path>
                    </g>
                </g>
            </g>
        </g>
    </g>
</svg>