<?xml version="1.0" encoding="UTF-8"?>
<svg width="18px" height="10px" viewBox="0 0 18 10" version="1.1" xmlns="http://www.w3.org/2000/svg" xmlns:xlink="http://www.w3.org/1999/xlink">
    <!-- Generator: sketchtool 40.2 (33826) - http://www.bohemiancoding.com/sketch -->
    <title>5CA1106F-64A9-42E5-AACD-7AC6EE908F94</title>
    <desc>Created with sketchtool.</desc>
    <defs></defs>
    <g id="Page-1" stroke="none" stroke-width="1" fill="none" fill-rule="evenodd">
        <g id="V06---Default-Screen" transform="translate(-401.000000, -278.000000)" fill="#686868">
            <g id="Group" transform="translate(370.000000, 240.000000)">
                <g id="Top-Header" transform="translate(0.000000, 1.000000)">
                    <g id="My-Dash" transform="translate(31.000000, 14.000000)">
                        <path d="M0,29 L2,29 L2,27 L0,27 L0,29 L0,29 Z M0,33 L2,33 L2,31 L0,31 L0,33 L0,33 Z M0,25 L2,25 L2,23 L0,23 L0,25 L0,25 Z M4,29 L18,29 L18,27 L4,27 L4,29 L4,29 Z M4,33 L18,33 L18,31 L4,31 L4,33 L4,33 Z M4,23 L4,25 L18,25 L18,23 L4,23 L4,23 Z" id="Shape"></path>
                    </g>
                </g>
            </g>
        </g>
    </g>
</svg>