<?xml version="1.0" encoding="utf-8"?>
<!-- Generator: Adobe Illustrator 18.1.1, SVG Export Plug-In . SVG Version: 6.00 Build 0)  -->
<svg version="1.1" id="Layer_1" xmlns="http://www.w3.org/2000/svg" xmlns:xlink="http://www.w3.org/1999/xlink" x="0px" y="0px"
	 viewBox="0 0 960 560" enable-background="new 0 0 960 560" xml:space="preserve">
<path fill="#646464" d="M480.6,36.5c-133.9,0-243.5,109.6-243.5,243.5s109.6,243.5,243.5,243.5S724.1,413.9,724.1,280
	S614.5,36.5,480.6,36.5z M479.4,112c40.2,0,73,31.7,73,71.8s-32.9,73-71.8,73c-40.2,0-73-32.9-71.8-73
	C407.6,144.9,440.4,112,479.4,112z M621.8,377.4c-30.4,46.3-82.8,76.7-141.2,76.7c-57.2-1.2-110.8-31.7-141.2-76.7
	c-1.2-1.2-1.2-2.4-2.4-3.7c1.2-15.8,12.2-26.8,24.3-35.3s26.8-14.6,41.4-19.5c14.6-4.9,29.2-8.5,45-11c2.4,0,32.9-3.7,32.9-2.4
	c0-1.2,30.4,2.4,34.1,2.4c15.8,2.4,30.4,6.1,45,11c14.6,4.9,28,11,41.4,19.5c12.2,8.5,23.1,19.5,24.3,35.3
	C623,373.7,623,376.2,621.8,377.4z"/>
</svg>
