<?xml version="1.0" encoding="utf-8"?>
<!-- Generator: Adobe Illustrator 18.1.1, SVG Export Plug-In . SVG Version: 6.00 Build 0)  -->
<svg version="1.1" id="Layer_1" xmlns="http://www.w3.org/2000/svg" xmlns:xlink="http://www.w3.org/1999/xlink" x="0px" y="0px"
	 viewBox="0 0 960 560" enable-background="new 0 0 960 560" xml:space="preserve">
<path fill="#539BE4" d="M265.3,492.3c0-30.3,0-56,0-84c0-2.3,2.3-7,4.7-9.3c84-84,168-170.3,254.3-254.3l2.3-2.3
	c28,30.3,58.3,58.3,88.7,88.7c-2.3,2.3-4.7,7-9.3,9.3C524.3,322,445,401.3,363.3,483c-4.7,7-11.7,9.3-23.3,9.3
	C316.7,492.3,293.3,492.3,265.3,492.3z M643.3,203C613,172.7,585,144.7,557,116.7c14-14,28-30.3,44.3-46.7c9.3-9.3,21-7,30.3,2.3
	c18.7,18.7,37.3,37.3,56,56c9.3,9.3,9.3,21,0,30.3C673.7,175,657.3,189,643.3,203z"/>
</svg>
