<?xml version="1.0" encoding="UTF-8" standalone="no"?>
<svg width="34px" height="26px" viewBox="0 0 34 26" version="1.1" xmlns="http://www.w3.org/2000/svg" xmlns:xlink="http://www.w3.org/1999/xlink">
    <!-- Generator: Sketch 3.8.2 (29753) - http://www.bohemiancoding.com/sketch -->
    <title>Page 1</title>
    <desc>Created with Sketch.</desc>
    <defs></defs>
    <g id="Page-1" stroke="none" stroke-width="1" fill="none" fill-rule="evenodd">
        <g id="Fill-1" fill="#579CE4">
            <path d="M33.0707,19.5169 L24.5776367,25.3707885 C24.5156367,25.4177885 24.4416367,25.4407885 24.3696367,25.4407885 C24.2976367,25.4407885 24.2256367,25.4177885 24.1646367,25.3727885 C24.0426367,25.2817885 23.9966367,25.1177885 24.0281365,24.9757885 L24.0281365,21.2757442 L16.0507,21.2879 C15.8627,21.2879 15.7107,21.1369 15.7107,20.9489 L15.7107,17.5459 C15.7107,17.3579 15.8627,17.2059 16.0507,17.2059 L24.0281365,17.1937442 L24.0281365,12.4007885 C23.9966367,12.2577885 24.0426367,12.0957885 24.1646367,12.0037885 C24.2866367,11.9117885 24.4556367,11.9117885 24.5776367,12.0057885 L33.0707,18.9779 C33.1537,19.0419 33.2027,19.1399 33.2027,19.2469 C33.2027,19.3519 33.1537,19.4519 33.0707,19.5169 Z M15.2717,9.9059 L5.3847,2.6559 L25.1577,2.6559 L15.2717,9.9059 Z M30.5417,14.5399 C30.5417,14.5399 30.5417,11.1372333 30.5417,8.4359 L30.5417,0.3319 C30.5417,0.1489 30.3937,-0.0001 30.2107,-0.0001 L0.3317,-0.0001 C0.1487,-0.0001 -0.0003,0.1489 -0.0003,0.3319 L-0.0003,20.9139 C-0.0003,21.0979 0.1487,21.2469 0.3317,21.2469 L13.5117,21.2469 L13.5117,18.9339 C13.5117,18.8169 13.5267,18.7029 13.5457,18.5909 L2.6557,18.5909 L2.6557,3.9489 L15.0747,13.0559 C15.1927,13.1419 15.3507,13.1419 15.4677,13.0559 L27.8867,3.9489 L27.8867,12.4979 L30.5417,14.5399 Z"></path>
        </g>
    </g>
</svg>