<?xml version="1.0" encoding="UTF-8"?>
<svg width="19px" height="20px" viewBox="0 0 19 20" version="1.1" xmlns="http://www.w3.org/2000/svg" xmlns:xlink="http://www.w3.org/1999/xlink">
    <!-- Generator: sketchtool 40.2 (33826) - http://www.bohemiancoding.com/sketch -->
    <title>0CC0770B-9ED3-4C10-A945-761051434A58</title>
    <desc>Created with sketchtool.</desc>
    <defs></defs>
    <g id="Page-1" stroke="none" stroke-width="1" fill="none" fill-rule="evenodd">
        <g id="V06---Default-Screen" transform="translate(-905.000000, -272.000000)" fill="#FF9F00">
            <g id="Group" transform="translate(370.000000, 240.000000)">
                <g id="Top-Header" transform="translate(0.000000, 1.000000)">
                    <g id="Buttons" transform="translate(517.000000, 0.000000)">
                        <g id="Export" transform="translate(18.000000, 31.000000)">
                            <path d="M12.7035136,2.233 L17.2747525,6.38 L12.7035136,6.38 L12.7035136,2.233 Z M19,19.264 L19,6.245 C19,6.037 18.9117363,5.84 18.7608669,5.705 L12.6778556,0.196 C12.5393021,0.073 12.3504588,0 12.1616156,0 L2.7553731,0 C2.33971263,0 2,0.331 2,0.736 L2,8.957 C2,9.362 2.33971263,9.693 2.7553731,9.693 C3.17103357,9.693 3.5107462,9.362 3.5107462,8.957 L3.5107462,1.472 L11.1927674,1.472 L11.1927674,7.116 C11.1927674,7.521 11.5324801,7.853 11.9481405,7.853 L17.3630162,7.853 C17.4009901,7.853 17.4512799,7.853 17.4892538,7.84 L17.4892538,18.527 L3.5107462,18.527 L3.5107462,15.583 C3.5107462,15.178 3.17103357,14.846 2.7553731,14.846 C2.33971263,14.846 2,15.178 2,15.583 L2,19.264 C2,19.669 2.33971263,20 2.7553731,20 L18.2446269,20 C18.6602874,20 19,19.669 19,19.264 Z M0,12.01304 C0,12.4035403 0.328254598,12.7226899 0.72989542,12.7226899 L8.33528669,12.7226899 L5.98692752,14.7581126 C5.68247386,15.0184461 5.65867292,15.4677625 5.92544176,15.7637714 C6.07221421,15.9170789 6.26658853,16 6.47385503,16 C6.64343671,16 6.8140101,15.9411839 6.95979084,15.8225875 L10.7570321,12.5337071 C10.9147133,12.4035403 11,12.2020229 11,12.0014696 C11,11.7999522 10.9147133,11.6109693 10.7570321,11.4692321 L6.95979084,8.18035171 C6.65632889,7.92001817 6.19320231,7.94315893 5.92544176,8.23916781 C5.65867292,8.53517669 5.68247386,8.9844931 5.98692752,9.24482664 L8.37197981,11.30339 L0.72989542,11.30339 C0.328254598,11.30339 0,11.6225397 0,12.01304 Z" id="Combined-Shape"></path>
                        </g>
                    </g>
                </g>
            </g>
        </g>
    </g>
</svg>