<?xml version="1.0" encoding="utf-8"?>
<!-- Generator: Adobe Illustrator 18.1.1, SVG Export Plug-In . SVG Version: 6.00 Build 0)  -->
<svg version="1.1" id="Layer_1" xmlns="http://www.w3.org/2000/svg" xmlns:xlink="http://www.w3.org/1999/xlink" x="0px" y="0px"
	 viewBox="0 0 960 560" enable-background="new 0 0 960 560" xml:space="preserve">
<path fill="#646464" d="M480,130.7c100.3,0,172.7,51.3,214.7,142.3c0,2.3,4.7,9.3,4.7,9.3s-2.3,7-4.7,9.3
	c-44.3,91-116.7,140-214.7,140c-100.3,0-170.3-49-214.7-140c-2.3-4.7-4.7-11.7-4.7-11.7s2.3-7,4.7-9.3
	C307.3,179.7,379.7,130.7,480,130.7z M480,380.3c56,0,100.3-44.3,100.3-100.3c0-53.7-44.3-100.3-98-100.3c-56,0-100.3,44.3-100.3,98
	C379.7,336,424,380.3,480,380.3z M540.7,282.3c0,32.7-28,58.3-60.7,58.3s-60.7-28-58.3-60.7c0-32.7,28-60.7,60.7-58.3
	C515,221.7,540.7,249.7,540.7,282.3z"/>
</svg>
