<?xml version="1.0" encoding="UTF-8" standalone="no"?>
<svg
   xmlns:dc="http://purl.org/dc/elements/1.1/"
   xmlns:cc="http://creativecommons.org/ns#"
   xmlns:rdf="http://www.w3.org/1999/02/22-rdf-syntax-ns#"
   xmlns:svg="http://www.w3.org/2000/svg"
   xmlns="http://www.w3.org/2000/svg"
   xml:space="preserve"
   enable-background="new 0 0 960 560"
   viewBox="0 0 960 560"
   y="0px"
   x="0px"
   id="Layer_1"
   version="1.1"><metadata
     id="metadata12"><rdf:RDF><cc:Work
         rdf:about=""><dc:format>image/svg+xml</dc:format><dc:type
           rdf:resource="http://purl.org/dc/dcmitype/StillImage" /><dc:title></dc:title></cc:Work></rdf:RDF></metadata><defs
     id="defs10" /><path
     d="m 474.74453,94.502916 c -103.25599,0 -186.95694,83.700954 -186.95694,186.956944 0,103.25598 83.70095,186.95693 186.95694,186.95693 103.25598,0 186.95693,-83.70095 186.95693,-186.95693 0,-103.25599 -83.70095,-186.956944 -186.95693,-186.956944 z m 22.39693,326.075094 -47.36512,0 0,-45.3352 47.36512,0 0,45.3352 z m 0,-93.85062 0,14.68319 -47.36512,0 0,-18.13408 c 0,-55.68786 63.33394,-64.48424 63.33394,-104.00029 0,-18.06642 -16.10415,-31.86997 -37.21546,-31.86997 -21.85562,0 -41.07233,16.10414 -41.07233,16.10414 l -26.8628,-33.35858 c 0,0 26.52448,-27.67477 72.19799,-27.67477 43.37293,0 83.70095,26.86279 83.70095,72.19799 0,63.33395 -66.71717,70.64171 -66.71717,112.05237 z"
     id="path4223" /></svg>