<?xml version="1.0" encoding="UTF-8"?>
<svg width="20px" height="20px" viewBox="0 0 20 20" version="1.1" xmlns="http://www.w3.org/2000/svg" xmlns:xlink="http://www.w3.org/1999/xlink">
    <!-- Generator: sketchtool 40.1 (33804) - http://www.bohemiancoding.com/sketch -->
    <title>2521D81F-42D2-4168-BF89-A7A6F455EA4A</title>
    <desc>Created with sketchtool.</desc>
    <defs></defs>
    <g id="Page-1" stroke="none" stroke-width="1" fill="none" fill-rule="evenodd" opacity="0.5">
        <g id="V06---Views-Modal" transform="translate(-396.000000, -282.000000)" fill="#9C9C9C">
            <g id="Modal" transform="translate(350.000000, 138.000000)">
                <g id="Selected" transform="translate(30.000000, 85.000000)">
                    <g id="View-Copy-2" transform="translate(0.000000, 44.000000)">
                        <path d="M25.99,15 C20.47,15 16,19.48 16,25 C16,30.52 20.47,35 25.99,35 C31.52,35 36,30.52 36,25 C36,19.48 31.52,15 25.99,15 L25.99,15 Z M30.23,31 L26,28.45 L21.77,31 L22.89,26.19 L19.16,22.96 L24.08,22.54 L26,18 L27.92,22.53 L32.84,22.95 L29.11,26.18 L30.23,31 L30.23,31 Z" id="Favourite"></path>
                    </g>
                </g>
            </g>
        </g>
    </g>
</svg>