<?xml version="1.0" encoding="utf-8"?>
<!-- Generator: Adobe Illustrator 19.2.1, SVG Export Plug-In . SVG Version: 6.00 Build 0)  -->
<svg version="1.1" id="Layer_1" xmlns="http://www.w3.org/2000/svg" xmlns:xlink="http://www.w3.org/1999/xlink" x="0px" y="0px"
	 viewBox="0 0 26.5 27.2" style="enable-background:new 0 0 26.5 27.2;" xml:space="preserve">
<g>
	<path class="st0" d="M13.7,2.2c-5.3,0-9.6,4.3-9.6,9.6c0,3.6,2,6.8,5,8.4l-0.1,4l4.5-2.8c0.1,0,0.1,0,0.2,0c5.3,0,9.6-4.3,9.6-9.6
		C23.3,6.5,19,2.2,13.7,2.2 M14.9,17.4h-2.5V9.5h2.5V17.4z M13.7,8.5c-0.8,0-1.3-0.6-1.3-1.2c0-0.7,0.5-1.2,1.3-1.2
		C14.5,6,15,6.6,15,7.3C15,8,14.5,8.5,13.7,8.5"/>
</g>
</svg>
