<?xml version="1.0" encoding="UTF-8" standalone="no"?>
<!-- Generator: Adobe Illustrator 18.1.1, SVG Export Plug-In . SVG Version: 6.00 Build 0)  -->

<svg
   xmlns:dc="http://purl.org/dc/elements/1.1/"
   xmlns:cc="http://creativecommons.org/ns#"
   xmlns:rdf="http://www.w3.org/1999/02/22-rdf-syntax-ns#"
   xmlns:svg="http://www.w3.org/2000/svg"
   xmlns="http://www.w3.org/2000/svg"
   xmlns:sodipodi="http://sodipodi.sourceforge.net/DTD/sodipodi-0.dtd"
   xmlns:inkscape="http://www.inkscape.org/namespaces/inkscape"
   version="1.1"
   id="Layer_1"
   x="0px"
   y="0px"
   viewBox="0 0 960 560"
   enable-background="new 0 0 960 560"
   xml:space="preserve"
   inkscape:version="0.91 r13725"
   sodipodi:docname="Help.svg"><metadata
     id="metadata3430"><rdf:RDF><cc:Work
         rdf:about=""><dc:format>image/svg+xml</dc:format><dc:type
           rdf:resource="http://purl.org/dc/dcmitype/StillImage" /></cc:Work></rdf:RDF></metadata><defs
     id="defs3428" /><sodipodi:namedview
     pagecolor="#ffffff"
     bordercolor="#666666"
     borderopacity="1"
     objecttolerance="10"
     gridtolerance="10"
     guidetolerance="10"
     inkscape:pageopacity="0"
     inkscape:pageshadow="2"
     inkscape:window-width="1177"
     inkscape:window-height="791"
     id="namedview3426"
     showgrid="false"
     inkscape:zoom="1.1589286"
     inkscape:cx="376.45609"
     inkscape:cy="280"
     inkscape:window-x="0"
     inkscape:window-y="0"
     inkscape:window-maximized="0"
     inkscape:current-layer="Layer_1" /><g
     id="g3422"><path
       fill="#646464"
       d="M625.6,87.8c-97.9,0-195.8,0-293.7,0c-29.5,0-44.4,14.7-44.4,44c0,73.1-0.1,146.3,0,219.4   c0,28.5,15.1,43.5,43.7,43.5c83.9,0,167.8,0.1,251.7-0.2c8.3,0,13.9,2.4,19.7,8.3c21.6,22.4,44.7,44.3,68.1,69.1   c0-7.5,0-11.3,0-15.2c0-107.9,0.3-215.8,0.2-323.7C670.8,102.1,656.7,87.8,625.6,87.8z M494.7,330.5c-1.2,2.8-2.9,5.3-5.1,7.4   c-2.2,2.1-4.7,3.7-7.6,4.9c-2.9,1.2-6,1.8-9.3,1.8c-3.4,0-6.6-0.6-9.4-1.8c-2.9-1.2-5.4-2.8-7.5-4.9c-2.1-2.1-3.8-4.5-5-7.4   c-1.2-2.8-1.8-5.9-1.8-9.1s0.6-6.3,1.8-9.1c1.2-2.8,2.9-5.2,5-7.3c2.1-2.1,4.6-3.7,7.5-4.9c2.9-1.2,6-1.8,9.4-1.8   c3.3,0,6.4,0.6,9.3,1.8c2.9,1.2,5.4,2.9,7.6,4.9c2.2,2.1,3.9,4.5,5.1,7.3c1.2,2.8,1.8,5.8,1.8,9.1S496,327.7,494.7,330.5z    M531.3,209.3c-1.9,4.9-4.3,9.3-7.2,13c-2.9,3.7-6.1,6.9-9.6,9.5c-3.5,2.6-6.8,5.2-9.9,7.5c-3.1,2.3-5.8,4.6-8.1,6.9   c-2.3,2.3-3.7,4.5-4.3,7.3l-3.8,18.7h-28.6l-3-21.5c-0.1-0.5-0.2-0.9-0.2-1.5s-0.1-1-0.1-1.6c0-4,0.9-7.4,2.8-10.4   c1.9-3,4.3-5.7,7.2-8.1c2.9-2.5,6-4.8,9.3-7.1c3.3-2.3,6.4-4.8,9.3-7.4s5.3-5.6,7.2-8.9c1.9-3.3,2.8-7.2,2.8-11.7   c0-5.4-1.8-9.7-5.3-12.9c-3.6-3.2-8.4-4.8-14.6-4.8c-4.8,0-8.8,0.5-11.9,1.5c-3.2,1-5.9,2.1-8.2,3.3c-2.3,1.2-4.3,2.3-6,3.3   c-1.7,1-3.4,1.5-5.1,1.5c-3.9,0-6.8-1.7-8.6-5l-11.1-17c3.3-2.8,7-5.4,10.9-7.8c3.9-2.4,8.1-4.6,12.6-6.4c4.5-1.8,9.3-3.3,14.5-4.3   c5.2-1,10.8-1.5,16.8-1.5c8.5,0,16.1,1.1,22.9,3.4c6.8,2.3,12.6,5.5,17.4,9.7c4.8,4.2,8.4,9.2,11,15.1c2.6,5.9,3.9,12.4,3.9,19.6   C534.1,198.4,533.2,204.4,531.3,209.3z"
       id="path3424" /></g></svg>