<?xml version="1.0" encoding="utf-8"?>
<!-- Generator: Adobe Illustrator 18.1.1, SVG Export Plug-In . SVG Version: 6.00 Build 0)  -->
<svg version="1.1" id="Layer_1" xmlns="http://www.w3.org/2000/svg" xmlns:xlink="http://www.w3.org/1999/xlink" x="0px" y="0px"
	 viewBox="0 0 1280 800" enable-background="new 0 0 1280 800" xml:space="preserve">
<g>
	<path d="M730.5,335.2c7.8,0,13.9-0.3,19.9,0.1c18.8,1,34.3,15.5,34.4,34.3c0.5,61.8,0.5,123.6,0,185.4c-0.1,19.4-15.6,34.8-35,34.8
		c-73.5,0.4-147.1,0.4-220.6,0c-19.9-0.1-35.1-15.8-35.2-35.8c-0.3-61-0.3-122.1,0-183.1c0.1-20,15.5-34.9,35.5-35.7
		c6-0.2,11.9,0,19,0c0-12.7-0.1-24.4,0-36.1c0.6-51.1,40.6-91.3,90.9-91.4c50.3,0,90.4,40.1,91.1,91.2
		C730.6,310.6,730.5,322.3,730.5,335.2z M695.3,334.7c0-15.3,1.5-29.7-0.3-43.8c-3.5-27.4-25-46.6-51.9-48.7
		c-25-1.9-51.1,14.7-56.9,39.5c-3.9,16.9-3.1,34.9-4.4,52.9C621,334.7,657.7,334.7,695.3,334.7z M639.4,426.2
		c-19.9,0.1-36.2,16.3-36.3,36.2c-0.1,19.9,16,36.3,35.9,36.6c20.3,0.3,37.1-16.4,36.8-36.8C675.6,442.3,659.3,426.1,639.4,426.2z"
		/>
</g>
</svg>
