<?xml version="1.0" encoding="utf-8"?>
<!-- Generator: Adobe Illustrator 18.1.1, SVG Export Plug-In . SVG Version: 6.00 Build 0)  -->
<svg version="1.1" id="Layer_1" xmlns="http://www.w3.org/2000/svg" xmlns:xlink="http://www.w3.org/1999/xlink" x="0px" y="0px"
	 viewBox="0 0 960 560" enable-background="new 0 0 960 560" xml:space="preserve">
<g>
	<path fill="#757575" d="M479.1,459.3c-58.2,0-116.4,0.1-174.6,0c-32.8,0-50.7-17.8-50.7-50.3c0-86.4,0-172.7,0.1-259.1
		c0-33.6,17.6-51.1,51.4-51.1c115.9,0,231.9,0,347.8,0c33.7,0,51.4,17.6,51.4,51.1c0,86.4,0.1,172.7,0,259.1
		c0,32.5-18,50.3-50.7,50.3C595.5,459.3,537.3,459.3,479.1,459.3z M298.9,144.5c0,13.5-0.9,24.4,0.4,35c0.6,5.1,3.9,11.6,8,14.2
		c54.6,34.7,109.4,68.9,164.5,102.7c3.6,2.2,11,2.4,14.5,0.2C541.7,262.6,596.9,228,652,193.3c3.4-2.1,6.8-6.8,7.1-10.6
		c0.9-12,0.3-24.1,0.3-38.1c-6.1,3.4-10.5,5.7-14.7,8.3c-51.7,32.3-103.4,64.4-154.8,97c-7.7,4.9-13.1,5.4-21.2,0.3
		c-51.4-32.7-103.1-64.8-154.7-97.1C309.7,150.6,305.3,148.2,298.9,144.5z"/>
</g>
</svg>
