<?xml version="1.0" encoding="utf-8"?>
<!-- Generator: Adobe Illustrator 18.1.1, SVG Export Plug-In . SVG Version: 6.00 Build 0)  -->
<svg version="1.1" id="Layer_1" xmlns="http://www.w3.org/2000/svg" xmlns:xlink="http://www.w3.org/1999/xlink" x="0px" y="0px"
	 viewBox="0 0 960 560" enable-background="new 0 0 960 560" xml:space="preserve">
<g id="ic_x5F_apps">
	<path d="M293.3,186.7h93.3V93.3h-93.3V186.7z M433.3,466.7h93.3v-93.3h-93.3V466.7z M293.3,466.7h93.3v-93.3h-93.3V466.7z
		 M293.3,326.7h93.3v-93.3h-93.3V326.7z M433.3,326.7h93.3v-93.3h-93.3V326.7z M573.3,93.3v93.3h93.3V93.3H573.3z M433.3,186.7h93.3
		V93.3h-93.3V186.7z M573.3,326.7h93.3v-93.3h-93.3V326.7z M573.3,466.7h93.3v-93.3h-93.3V466.7z"/>
	<polygon display="none" fill="none" points="200,0 760,0 760,560 200,560 	"/>
</g>
</svg>
