<svg id="Layer_1" data-name="Layer 1" xmlns="http://www.w3.org/2000/svg" viewBox="0 0 377.71527 366.672"><defs><style>.cls-1{fill:#549be4;}</style></defs><title>Icon_no-change</title><rect class="cls-1" x="50" y="90" width="173" height="23"/><polygon class="cls-1" points="240.287 262.12 217.141 238.632 201.011 254.527 201.011 254.527 240.287 294.384 319.047 214.46 302.917 198.565 240.287 262.12"/><path class="cls-1" d="M343.39374,163.67291A116.49083,116.49083,0,0,0,274,129.58166V0H0V325H171.10162q2.95972,3.5062,6.17328,6.7738a116.29185,116.29185,0,0,0,166.11884,0A120.07688,120.07688,0,0,0,343.39374,163.67291ZM23,302V23H251V129.14825A115.54183,115.54183,0,0,0,210.51978,140H50v23H177.95343c-0.22528.22516-.45508,0.44592-0.67853,0.67291A119.04845,119.04845,0,0,0,157.13806,191H50v22h98.0437a120.00553,120.00553,0,0,0-4.90009,28H50v22h93.91492a119.40734,119.40734,0,0,0,11.94879,39H23Zm304.26361,13.87866a93.6467,93.6467,0,0,1-133.85858,0,97.43136,97.43136,0,0,1,0-136.31067,93.64641,93.64641,0,0,1,133.85858,0A97.43136,97.43136,0,0,1,327.26361,315.87866Z"/></svg>