<svg id="Layer_1" data-name="Layer 1" xmlns="http://www.w3.org/2000/svg" viewBox="0 0 669 703"><defs><style>.cls-1{fill:#333;}</style></defs><title>open_full_review</title><rect class="cls-1" x="135" y="534" width="237" height="34"/><rect class="cls-1" x="135" y="399" width="237" height="34"/><rect class="cls-1" x="135" y="467" width="237" height="33"/><rect class="cls-1" x="135" y="331" width="237" height="34"/><path class="cls-1" d="M1451,456.64V783H1079V377h293.37L1440,309H1061.67A50.94,50.94,0,0,0,1011,359.88V799.66A50.49,50.49,0,0,0,1061.67,850h405.95A50.24,50.24,0,0,0,1518,799.66V389Z" transform="translate(-1011 -147)"/><path class="cls-1" d="M1424.27,272.73a17.08,17.08,0,0,0,17.08,17.08h72.82l-110,110A17.08,17.08,0,1,0,1428.34,424l110-110v72.84a17.08,17.08,0,1,0,34.16,0V272.73a17.08,17.08,0,0,0-17.08-17.08H1441.34A17.08,17.08,0,0,0,1424.27,272.73Z" transform="translate(-1011 -147)"/><path class="cls-1" d="M1629.35,147H1223.4c-27.91,0-50.4,23.23-50.4,51.14V344h67V215h372V621H1464v68h165.35c27.91,0,50.65-23.17,50.65-51.08V198.14C1680,170.23,1657.26,147,1629.35,147Z" transform="translate(-1011 -147)"/></svg>