<svg id="Layer_1" data-name="Layer 1" xmlns="http://www.w3.org/2000/svg" viewBox="0 0 22.02409 20"><defs><style>.cls-1{fill:#549be4;}</style></defs><title>Icon_PaperClip</title><g id="Clips"><path class="cls-1" d="M20.70515,2.15205a5.68938,5.68938,0,0,0-8.04558,0L1.59736,13.2142a4.25574,4.25574,0,0,0,5.066,6.73857,1.13783,1.13783,0,0,0,.43485-0.29187L18.19062,8.6901A2.844,2.844,0,0,0,14.16855,4.668L5.1174,13.71911a0.711,0.711,0,0,0,1.0055,1.0055L15.174,5.67353A1.422,1.422,0,0,1,17.18511,7.6846L6.625,18.24465a2.844,2.844,0,0,1-4.02207-4.02207l11.06215-11.065a4.26709,4.26709,0,0,1,6.03458,6.03458L9.643,19.24877a0.711,0.711,0,1,0,1.0055,1.0055L20.70515,10.19763A5.68938,5.68938,0,0,0,20.70515,2.15205Z" transform="translate(-0.34723 -0.48588)"/></g></svg>