<?xml version="1.0" encoding="utf-8"?>
<!-- Generator: Adobe Illustrator 19.1.0, SVG Export Plug-In . SVG Version: 6.00 Build 0)  -->
<svg version="1.1" id="Layer_1" xmlns="http://www.w3.org/2000/svg" xmlns:xlink="http://www.w3.org/1999/xlink" x="0px" y="0px"
	 viewBox="0 0 568 160" style="enable-background:new 0 0 568 160;" xml:space="preserve">
<style type="text/css">
	.st0{fill:#FF9800;}
	.st1{fill:#539BE4;}
	.st2{fill:#FFFFFF;}
	.st3{fill:#232323;}
</style>
<g>
	<g>
		<g>
			<path class="st0" d="M190.8,47h25.5c8.6,0,12.5,0.7,15.9,2.2c7.9,3.6,12.9,11.1,12.9,21.6c0,9.5-5,18.3-13.4,21.6v0.2
				c0,0,1.1,1.1,2.7,3.9l16.2,29.5h-16L219,96.5h-13.8V126h-14.4V47z M218.1,84.1c7.7,0,12.5-4.6,12.5-12.5
				c0-7.6-3.2-12.2-14.5-12.2h-10.9v24.7H218.1z"/>
			<path class="st0" d="M280.3,68.1c16.3,0,25,11.9,25,26.8c0,1.7-0.3,5.4-0.3,5.4h-39c0.9,9.9,8.5,15,16.9,15
				c9.1,0,16.3-6.2,16.3-6.2l5.4,10.1c0,0-8.6,8.1-22.7,8.1c-18.7,0-30.4-13.5-30.4-29.6C251.6,80.3,263.4,68.1,280.3,68.1z
				 M291.1,90.7c-0.2-7.6-5-11.7-11.2-11.7c-7.2,0-12.2,4.4-13.5,11.7H291.1z"/>
			<path class="st0" d="M341.6,68.1c16.3,0,25,11.9,25,26.8c0,1.7-0.3,5.4-0.3,5.4h-39c0.9,9.9,8.5,15,16.9,15
				c9.1,0,16.3-6.2,16.3-6.2l5.4,10.1c0,0-8.6,8.1-22.7,8.1c-18.7,0-30.4-13.5-30.4-29.6C312.9,80.3,324.8,68.1,341.6,68.1z
				 M352.5,90.7c-0.2-7.6-5-11.7-11.2-11.7c-7.2,0-12.2,4.4-13.5,11.7H352.5z"/>
			<path class="st0" d="M370.6,69.1h15c0,0,13.8,44,13.9,44h0.2c0.1,0,13.9-44,13.9-44h15l-20.5,57.1h-16.8L370.6,69.1z"/>
			<path class="st0" d="M461.4,68.1c17.3,0,31.1,12.3,31.1,29.6c0,17.4-13.8,29.6-31,29.6c-17.3,0-31.1-12.2-31.1-29.6
				C430.4,80.4,444.3,68.1,461.4,68.1z M461.5,115.3c9.1,0,16.7-7.1,16.7-17.6c0-10.4-7.6-17.6-16.7-17.6c-9.2,0-16.8,7.2-16.8,17.6
				C444.7,108.2,452.3,115.3,461.5,115.3z"/>
			<path class="st0" d="M531.2,68.1c17.3,0,31.1,12.3,31.1,29.6c0,17.4-13.8,29.6-31,29.6c-17.3,0-31.1-12.2-31.1-29.6
				C500.2,80.4,514,68.1,531.2,68.1z M531.3,115.3c9.1,0,16.7-7.1,16.7-17.6c0-10.4-7.6-17.6-16.7-17.6c-9.2,0-16.8,7.2-16.8,17.6
				C514.5,108.2,522.1,115.3,531.3,115.3z"/>
		</g>
		<g>
			<path class="st0" d="M38.7,13.6c18.4,0,32.8,15.7,32.8,32.9c0,3.3-0.6,19.5-18.8,30.2c-6.9,4.1-12.4,12-1.9,19.9
				c1.8,1.4,1,3.1-0.7,3.1c-1.7,0-6.9-1.2-14.6-4.7c-16.8-7.7-30-27-29.9-48.1C5.8,28.5,20.3,13.6,38.7,13.6z"/>
			<path class="st0" d="M109.3,60.3c-18.4,0-32.8,15.7-32.8,32.9c0,3.3,0.6,19.5,18.8,30.2c6.9,4.1,12.4,12,1.9,19.9
				c-1.8,1.4-1,3.1,0.7,3.1c1.7,0,6.9-1.2,14.6-4.7c16.8-7.7,30-27,29.9-48.1C142.2,75.2,127.7,60.3,109.3,60.3z"/>
		</g>
	</g>
</g>
</svg>
