<?xml version="1.0" encoding="utf-8"?>
<!-- Generator: Adobe Illustrator 18.1.1, SVG Export Plug-In . SVG Version: 6.00 Build 0)  -->
<svg version="1.1" id="Layer_1" xmlns="http://www.w3.org/2000/svg" xmlns:xlink="http://www.w3.org/1999/xlink" x="0px" y="0px"
	 viewBox="0 0 960 560" enable-background="new 0 0 960 560" xml:space="preserve">
<g id="ic_x5F_refresh">
	<path d="M610.7,149.3c-32.7-35-79.3-56-130.7-56c-102.7,0-186.7,84-186.7,186.7s84,186.7,186.7,186.7c86.3,0,158.7-60.7,179.7-140
		h-49C592,380.3,540.7,420,480,420c-77,0-140-63-140-140s63-140,140-140c39.7,0,72.3,16.3,98,42l-74.7,74.7h163.3V93.3L610.7,149.3z
		"/>
	<polygon display="none" fill="none" points="200,0 760,0 760,560 200,560 	"/>
</g>
</svg>
