<?xml version="1.0" encoding="utf-8"?>
<!-- Generator: Adobe Illustrator 18.1.1, SVG Export Plug-In . SVG Version: 6.00 Build 0)  -->
<svg version="1.1" id="Layer_1" xmlns="http://www.w3.org/2000/svg" xmlns:xlink="http://www.w3.org/1999/xlink" x="0px" y="0px"
	 viewBox="0 0 960 560" enable-background="new 0 0 960 560" xml:space="preserve">
<path fill="#646464" d="M579.2,217.9l-37.7-36.5l-60.9,62.1l-62.1-62.1l-37.7,36.5l62.1,62.1l-62.1,62.1l37.7,36.5l62.1-62.1
	l60.9,62.1l37.7-36.5L517.1,280L579.2,217.9z M705.8,185c-18.3-43.8-49.9-81.6-88.9-107.1c-39-26.8-86.4-42.6-136.3-42.6
	c-34.1,0-65.7,7.3-95,19.5c-45,18.3-81.6,49.9-108.3,88.9s-41.4,85.2-41.4,136.3c0,34.1,7.3,65.7,19.5,95
	c18.3,43.8,49.9,81.6,88.9,107.1c39,26.8,86.4,41.4,136.3,41.4c34.1,0,65.7-7.3,95-19.5c43.8-18.3,81.6-49.9,107.1-88.9
	c26.8-37.7,41.4-84,41.4-135.1C724.1,245.9,718,214.3,705.8,185z M660.8,356.7c-14.6,35.3-40.2,64.5-70.6,86.4
	c-31.7,20.7-69.4,32.9-109.6,32.9c-26.8,0-52.3-6.1-76.7-15.8c-35.3-14.6-64.5-40.2-86.4-70.6c-20.7-31.7-32.9-69.4-32.9-109.6
	c0-26.8,6.1-52.3,15.8-76.7c14.6-35.3,40.2-64.5,70.6-86.4C402.7,96.2,440.4,84,480.6,84c26.8,0,52.3,6.1,76.7,15.8
	c35.3,14.6,64.5,40.2,86.4,70.6c20.7,31.7,32.9,69.4,32.9,109.6C676.6,306.8,670.5,332.3,660.8,356.7z"/>
</svg>
