<?xml version="1.0" encoding="utf-8"?>
<!-- Generator: Adobe Illustrator 18.1.1, SVG Export Plug-In . SVG Version: 6.00 Build 0)  -->
<svg version="1.1" id="Layer_1" xmlns="http://www.w3.org/2000/svg" xmlns:xlink="http://www.w3.org/1999/xlink" x="0px" y="0px"
	 viewBox="0 0 960 560" enable-background="new 0 0 960 560" xml:space="preserve">
<path fill="#646464" d="M666.9,36.5c-124.2,0-248.3,0-372.5,0c-39,0-57.2,18.3-57.2,57.2c0,137.6,0,273.9,0,410.3
	c0,4.9,0,9.7,0,19.5c30.4-31.7,59.7-59.7,86.4-87.7c7.3-7.3,14.6-11,25.6-11c105.9,0,213,0,319,0c36.5,0,56-19.5,56-54.8
	c0-92.5,0-185,0-278.8C722.9,54.8,704.6,36.5,666.9,36.5z M613.3,317.7c-12.2-14.6-26.8-26.8-43.8-37.7
	c-34.1-21.9-71.8-30.4-112-21.9c-1.2,0-3.7,1.2-3.7,1.2v4.9c0,19.5,0,39,0,58.4c0,1.2,0,2.4,0,4.9c-45-36.5-87.7-73-130.3-108.3
	c43.8-36.5,85.2-71.8,130.3-108.3c0,23.1,0,67,0,67s2.4,0,4.9,0c18.3,1.2,36.5,4.9,54.8,9.7c24.3,7.3,45,18.3,63.3,36.5
	c20.7,20.7,32.9,46.3,36.5,74.3c1.2,7.3,1.2,14.6,2.4,23.1v2.4C617,321.4,614.5,317.7,613.3,317.7z"/>
</svg>
