<?xml version="1.0" encoding="UTF-8"?>
<svg width="16px" height="16px" viewBox="0 0 16 16" version="1.1" xmlns="http://www.w3.org/2000/svg" xmlns:xlink="http://www.w3.org/1999/xlink">
    <!-- Generator: sketchtool 40.2 (33826) - http://www.bohemiancoding.com/sketch -->
    <title>DD43A7BD-C37B-4AAF-A0EA-5EE40686BECD</title>
    <desc>Created with sketchtool.</desc>
    <defs></defs>
    <g id="Page-1" stroke="none" stroke-width="1" fill="none" fill-rule="evenodd">
        <g id="V06---Default-Screen" transform="translate(-1004.000000, -273.000000)" fill="#FF9F00">
            <g id="Group" transform="translate(370.000000, 240.000000)">
                <g id="Top-Header" transform="translate(0.000000, 1.000000)">
                    <g id="Buttons" transform="translate(517.000000, 0.000000)">
                        <g id="Subscribe" transform="translate(117.000000, 32.000000)">
                            <path d="M2.18,16 C3.38398075,16 4.36,15.0239808 4.36,13.82 C4.36,12.6160192 3.38398075,11.64 2.18,11.64 C0.976019245,11.64 0,12.6160192 0,13.82 C0,15.0239808 0.976019245,16 2.18,16 Z M0,0.44 L0,3.27 C7.03,3.27 12.73,8.97 12.73,16 L15.56,16 C15.56,7.41 8.59,0.44 1.77635684e-15,0.44 L0,0.44 Z M0,6.1 L0,8.93 C3.9,8.93 7.07,12.1 7.07,16 L9.9,16 C9.9,10.53 5.47,6.1 0,6.1 L0,6.1 Z" id="Combined-Shape"></path>
                        </g>
                    </g>
                </g>
            </g>
        </g>
    </g>
</svg>