<?xml version="1.0" encoding="utf-8"?>
<!-- Generator: Adobe Illustrator 17.1.0, SVG Export Plug-In . SVG Version: 6.00 Build 0)  -->
<!DOCTYPE svg PUBLIC "-//W3C//DTD SVG 1.1//EN" "http://www.w3.org/Graphics/SVG/1.1/DTD/svg11.dtd">
<svg version="1.1" id="Layer_1" xmlns="http://www.w3.org/2000/svg" xmlns:xlink="http://www.w3.org/1999/xlink" x="0px" y="0px"
	 viewBox="0 0 60 60" enable-background="new 0 0 60 60" xml:space="preserve">
<path fill="#FF9800" d="M55.385,0H4.615C2.066,0,0,2.066,0,4.615v50.769C0,57.934,2.066,60,4.615,60h50.769
	C57.934,60,60,57.934,60,55.385V4.615C60,2.066,57.934,0,55.385,0z M40.19,15.495c2.578,0,4.671,2.093,4.671,4.671
	c0,2.582-2.089,4.671-4.671,4.671c-2.579,0-4.671-2.089-4.671-4.671C35.519,17.588,37.611,15.495,40.19,15.495z M19.013,15.495
	c2.579,0,4.667,2.093,4.667,4.671c0,2.582-2.088,4.671-4.667,4.671c-2.581,0-4.67-2.089-4.67-4.671
	C14.344,17.588,16.432,15.495,19.013,15.495z M46.136,47.018c-1.144,0.496-2.475-0.029-2.971-1.177
	c-2.178-5.038-7.329-8.293-13.119-8.293c-5.928,0-11.11,3.255-13.198,8.289c-0.361,0.868-1.203,1.394-2.089,1.394
	c-0.287,0-0.581-0.059-0.864-0.177c-1.155-0.478-1.699-1.798-1.221-2.953c2.795-6.726,9.613-11.073,17.373-11.073
	c7.595,0,14.373,4.325,17.267,11.018C47.809,45.194,47.284,46.526,46.136,47.018z"/>
</svg>
