<?xml version="1.0" encoding="UTF-8" standalone="no"?>
<!-- Generator: Adobe Illustrator 18.1.1, SVG Export Plug-In . SVG Version: 6.00 Build 0)  -->

<svg
   xmlns:dc="http://purl.org/dc/elements/1.1/"
   xmlns:cc="http://creativecommons.org/ns#"
   xmlns:rdf="http://www.w3.org/1999/02/22-rdf-syntax-ns#"
   xmlns:svg="http://www.w3.org/2000/svg"
   xmlns="http://www.w3.org/2000/svg"
   xmlns:sodipodi="http://sodipodi.sourceforge.net/DTD/sodipodi-0.dtd"
   xmlns:inkscape="http://www.inkscape.org/namespaces/inkscape"
   version="1.1"
   id="Layer_1"
   x="0px"
   y="0px"
   viewBox="0 0 960 560"
   enable-background="new 0 0 960 560"
   xml:space="preserve"
   inkscape:version="0.91 r13725"
   sodipodi:docname="search.svg"><metadata
     id="metadata19"><rdf:RDF><cc:Work
         rdf:about=""><dc:format>image/svg+xml</dc:format><dc:type
           rdf:resource="http://purl.org/dc/dcmitype/StillImage" /></cc:Work></rdf:RDF></metadata><defs
     id="defs17" /><sodipodi:namedview
     pagecolor="#ffffff"
     bordercolor="#666666"
     borderopacity="1"
     objecttolerance="10"
     gridtolerance="10"
     guidetolerance="10"
     inkscape:pageopacity="0"
     inkscape:pageshadow="2"
     inkscape:window-width="640"
     inkscape:window-height="480"
     id="namedview15"
     showgrid="false"
     inkscape:zoom="0.32291667"
     inkscape:cx="232.25806"
     inkscape:cy="-2816.7742"
     inkscape:window-x="0"
     inkscape:window-y="0"
     inkscape:window-maximized="0"
     inkscape:current-layer="Layer_1" /><g
     id="g9"><g
       id="g11"><path
         fill="#757575"
         d="M556.9,326.4h-16.4l-5.7-5.7c20.2-23.5,32.4-54.1,32.4-87.5c0-74.3-60.2-134.5-134.5-134.5    S298.1,159,298.1,233.3c0,74.3,60.2,134.5,134.5,134.5c33.4,0,63.9-12.3,87.4-32.4l5.7,5.7v16.4l103.5,103.3l30.9-30.9    L556.9,326.4z M432.7,326.4c-51.4,0-93.1-41.7-93.1-93.1c0-51.4,41.7-93.1,93.1-93.1s93.1,41.7,93.1,93.1    C525.8,284.7,484.1,326.4,432.7,326.4z"
         id="path13" /></g></g></svg>