<svg id="Content" xmlns="http://www.w3.org/2000/svg" viewBox="0 0 40.26 36.15"><defs><style>.cls-1{fill:#646464;}</style></defs><title>send_to_a_collegue</title><path class="cls-1" d="M1143.06,953.54a20,20,0,0,1,3.78-1.59c0.52-.16,1.11-0.31,1.7-0.44s1.75-.34,1.75-0.34l1-.12c0-.8,0-3.8,0-6.22v-2.19L1153,944c2.06,1.63,4,3.24,5.92,4.85q0-6.78,0-13.57c0-2.5-1.32-3.81-3.84-3.82h-26c-2.52,0-3.84,1.31-3.84,3.82q0,9.68,0,19.36c0,2.43,1.34,3.76,3.79,3.76h8.74a13.68,13.68,0,0,1,2-2.4A15.79,15.79,0,0,1,1143.06,953.54Zm-13.86-15a1.61,1.61,0,0,1-.6-1.06,24.6,24.6,0,0,1,0-2.62c0.48,0.27.81,0.45,1.13,0.65,3.86,2.41,7.73,4.81,11.57,7.26a1.25,1.25,0,0,0,1.58,0c3.84-2.44,7.71-4.84,11.57-7.25,0.32-.2.65-0.37,1.1-0.62,0,1,0,2,0,2.85a1.21,1.21,0,0,1-.53.79q-6.17,3.9-12.39,7.73a1.25,1.25,0,0,1-1.08,0Q1135.32,942.45,1129.2,938.57Z" transform="translate(-1125.21 -931.47)"/><path class="cls-1" d="M1152.46,955.26c-0.68.11-1.56,0.26-2.4,0.44-0.56.12-1.1,0.25-1.52,0.39a17.88,17.88,0,0,0-3.38,1.42,13.67,13.67,0,0,0-2.9,2.14,11.42,11.42,0,0,0-2.37,3.29,12.88,12.88,0,0,0-1.05,3.37,20.3,20.3,0,0,1,3-2.27,11.58,11.58,0,0,1,3-1.24,23.46,23.46,0,0,1,3.21-.65,38.18,38.18,0,0,1,4.92-.32h0.55l1,0,0,5.74,3.41-2.84,7.62-6.35c-3.7-3.1-7.23-6.17-11-9.26v5.91h-0.92l-0.23,0Z" transform="translate(-1125.21 -931.47)"/></svg>