<?xml version="1.0" encoding="utf-8"?>
<!-- Generator: Adobe Illustrator 18.1.1, SVG Export Plug-In . SVG Version: 6.00 Build 0)  -->
<svg version="1.1" id="Layer_1" xmlns="http://www.w3.org/2000/svg" xmlns:xlink="http://www.w3.org/1999/xlink" x="0px" y="0px"
	 viewBox="0 0 960 560" enable-background="new 0 0 960 560" xml:space="preserve">
<path fill="#646464" d="M452.6,328.7c14.6-8.5,30.4-14.6,46.3-19.5c6.1-2.4,13.4-3.7,20.7-4.9c7.3-1.2,21.9-3.7,21.9-3.7l12.2-1.2
	c0-9.7,0-46.3,0-75.5v-26.8l20.7,17c25.6,19.5,48.7,39,71.8,58.4c0-54.8,0-109.6,0-165.6c0-30.4-15.8-46.3-46.3-46.3
	c-105.9,0-210.6,0-316.5,0c-30.4,0-46.3,15.8-46.3,46.3c0,79.1,0,157,0,236.2c0,29.2,15.8,46.3,46.3,46.3c35.3,0,70.6,0,105.9,0
	c7.3-11,14.6-20.7,24.3-29.2C424.6,347,438,337.2,452.6,328.7z M283.4,146.1c-3.7-2.4-7.3-8.5-7.3-13.4c-1.2-9.7,0-19.5,0-31.7
	c6.1,3.7,9.7,6.1,13.4,8.5c47.5,29.2,93.7,58.4,141.2,88.9c7.3,4.9,12.2,3.7,19.5,0c46.3-29.2,93.7-58.4,141.2-88.9
	c3.7-2.4,7.3-4.9,13.4-7.3c0,12.2,0,24.3,0,34.1c0,3.7-3.7,7.3-6.1,9.7c-49.9,31.7-99.8,63.3-151,93.7c-3.7,2.4-9.7,2.4-13.4,0
	C383.2,209.4,333.3,177.7,283.4,146.1z M567,349.4c-8.5,1.2-19.5,3.7-29.2,4.9c-7.3,1.2-13.4,3.7-18.3,4.9c-14.6,4.9-28,9.7-41.4,17
	c-12.2,7.3-24.3,15.8-35.3,25.6c-12.2,12.2-21.9,25.6-29.2,40.2c-6.1,12.2-9.7,26.8-13.4,41.4c11-9.7,23.1-19.5,36.5-28
	c11-6.1,23.1-11,36.5-14.6c13.4-3.7,26.8-6.1,39-7.3c25.6-3.7,48.7-3.7,59.7-3.7c3.7,0,6.1,0,7.3,0h12.2v69.4
	c11-9.7,25.6-20.7,41.4-34.1c30.4-25.6,65.7-54.8,92.5-77.9c-45-37.7-87.7-75.5-133.9-113.2c0,31.7,0,71.8,0,71.8h-9.7l0,0
	c0,0,0,0-1.2,0c-1.2,0-1.2,0-2.4,0C574.3,348.2,570.7,349.4,567,349.4z"/>
</svg>
