<?xml version="1.0" encoding="utf-8"?>
<!-- Generator: Adobe Illustrator 19.0.0, SVG Export Plug-In . SVG Version: 6.00 Build 0)  -->
<svg version="1.1" id="Layer_2" xmlns="http://www.w3.org/2000/svg" xmlns:xlink="http://www.w3.org/1999/xlink" x="0px" y="0px"
	 viewBox="0 0 160.9 164.8" enable-background="new 0 0 160.9 164.8" xml:space="preserve">
<path fill="#404040" d="M157.2,104.5l-17.7-14.7c0.3-2.4,0.5-4.9,0.5-7.5c0-2.4-0.2-4.7-0.4-7l17.6-14.2c1.3-0.8,1.8-2.5,1-3.9
	l-16.9-29.1c-0.8-1.3-2.5-1.8-3.9-1l-20.6,8.1c-4.1-3.2-8.6-5.9-13.5-7.9L100,5.2c0-1.6-1.3-2.8-2.8-2.8H63.5
	c-1.6,0-2.8,1.3-2.8,2.8l-3.4,22.1c-4.8,2-9.2,4.6-13.2,7.7l-20.2-8.2c-1.3-0.8-3.1-0.4-3.9,1L2.7,56.7c-0.8,1.3-0.4,3.1,1,3.9
	L21.1,75c-0.3,2.4-0.5,4.9-0.5,7.4c0,2.5,0.2,5,0.5,7.5l-17.4,14c-1.3,0.8-1.8,2.5-1,3.9l16.9,29.1c0.8,1.3,2.5,1.8,3.9,1l20.7-8.1
	c4,3.1,8.4,5.6,13.1,7.6l3.4,22.1c0,1.6,1.3,2.8,2.8,2.8h33.6c1.6,0,2.8-1.3,2.8-2.8l3.4-22.1c4.7-2,9.1-4.5,13.1-7.6l20.6,8.4
	c1.3,0.8,3.1,0.4,3.9-1l17.3-28.9C159,107.1,158.6,105.3,157.2,104.5z M80.3,110.7C64.7,110.7,52,98,52,82.4S64.7,54,80.3,54
	s28.3,12.7,28.3,28.3S96,110.7,80.3,110.7z"/>
</svg>
