<?xml version="1.0" encoding="utf-8"?>
<!-- Generator: Adobe Illustrator 17.1.0, SVG Export Plug-In . SVG Version: 6.00 Build 0)  -->
<!DOCTYPE svg PUBLIC "-//W3C//DTD SVG 1.1//EN" "http://www.w3.org/Graphics/SVG/1.1/DTD/svg11.dtd">
<svg version="1.1" id="Layer_1" xmlns="http://www.w3.org/2000/svg" xmlns:xlink="http://www.w3.org/1999/xlink" x="0px" y="0px"
	 viewBox="0 0 60 60" enable-background="new 0 0 60 60" xml:space="preserve">
<path fill="#FF9800" d="M55.384,0H4.616C2.066,0,0,2.066,0,4.615v50.769C0,57.934,2.066,60,4.616,60h50.769
	C57.934,60,60,57.934,60,55.385V4.615C60,2.066,57.934,0,55.384,0z M40.367,15.591c2.578,0,4.671,2.093,4.671,4.671
	c0,2.582-2.089,4.671-4.671,4.671c-2.579,0-4.671-2.089-4.671-4.671C35.696,17.684,37.788,15.591,40.367,15.591z M19.19,15.591
	c2.579,0,4.667,2.093,4.667,4.671c0,2.582-2.088,4.671-4.667,4.671c-2.581,0-4.67-2.089-4.67-4.671
	C14.52,17.684,16.609,15.591,19.19,15.591z M46.737,36.39c-2.894,6.693-9.672,11.018-17.267,11.018
	c-7.76,0-14.578-4.344-17.373-11.074c-0.478-1.151,0.067-2.475,1.221-2.953c0.283-0.118,0.577-0.172,0.864-0.172
	c0.887,0,1.729,0.525,2.089,1.393c2.093,5.035,7.271,8.29,13.199,8.29c5.793,0,10.942-3.258,13.122-8.294
	c0.493-1.148,1.824-1.677,2.968-1.181C46.707,33.915,47.233,35.246,46.737,36.39z"/>
</svg>
