<?xml version="1.0" encoding="utf-8"?>
<!-- Generator: Adobe Illustrator 18.1.1, SVG Export Plug-In . SVG Version: 6.00 Build 0)  -->
<svg version="1.1" id="Layer_1" xmlns="http://www.w3.org/2000/svg" xmlns:xlink="http://www.w3.org/1999/xlink" x="0px" y="0px"
	 viewBox="0 0 24 24" enable-background="new 0 0 24 24" xml:space="preserve">
<path fill="#808080" d="M12,7.2l1.1,2.6l0.4,0.9l1,0.1l2.8,0.3L15.1,13l-0.8,0.6l0.2,1l0.7,2.9L12.8,16L12,15.5L11.1,16l-2.4,1.5
	l0.7-2.9l0.2-1L8.8,13l-2.1-1.8l2.8-0.3l1-0.1l0.4-0.9L12,7.2 M12,3.1L9.3,9.2L2.7,9.8l5.1,4.4l-1.5,6.7l5.7-3.5l5.8,3.5l-1.5-6.7
	l5.1-4.4l-6.7-0.6L12,3.1z"/>
</svg>
