<?xml version="1.0" encoding="utf-8"?>
<!-- Generator: Adobe Illustrator 18.1.1, SVG Export Plug-In . SVG Version: 6.00 Build 0)  -->
<svg version="1.1" id="Layer_1" xmlns="http://www.w3.org/2000/svg" xmlns:xlink="http://www.w3.org/1999/xlink" x="0px" y="0px"
	 viewBox="0 0 960 560" enable-background="new 0 0 960 560" xml:space="preserve">
<g id="ic_x5F_more_x5F_vert">
	<path d="M480,186.7c25.7,0,46.7-21,46.7-46.7s-21-46.7-46.7-46.7c-25.7,0-46.7,21-46.7,46.7S454.3,186.7,480,186.7z M480,233.3
		c-25.7,0-46.7,21-46.7,46.7s21,46.7,46.7,46.7c25.7,0,46.7-21,46.7-46.7S505.7,233.3,480,233.3z M480,373.3
		c-25.7,0-46.7,21-46.7,46.7c0,25.7,21,46.7,46.7,46.7c25.7,0,46.7-21,46.7-46.7C526.7,394.3,505.7,373.3,480,373.3z"/>
	<polygon display="none" fill="none" points="340,0 620,0 620,560 340,560 	"/>
</g>
</svg>
