<?xml version="1.0" encoding="utf-8"?>
<!-- Generator: Adobe Illustrator 18.1.1, SVG Export Plug-In . SVG Version: 6.00 Build 0)  -->
<svg version="1.1" id="Layer_1" xmlns="http://www.w3.org/2000/svg" xmlns:xlink="http://www.w3.org/1999/xlink" x="0px" y="0px"
	 viewBox="0 0 1280 800" enable-background="new 0 0 1280 800" xml:space="preserve">
<g id="ic_x5F_phone">
	<path d="M524.1,374.2c30,60.1,81.5,109.4,141.6,141.6l45.1-45.1c4.3-4.3,8.6-6.4,15-6.4h85.8c12.9,0,21.5,8.6,21.5,21.5v85.8
		c0,12.9-8.6,21.5-21.5,21.5C610,593.1,446.9,430,446.9,228.3c0-12.9,8.6-21.5,21.5-21.5h85.8c12.9,0,21.5,8.6,21.5,21.5v85.8
		c0,6.4-2.1,10.7-6.4,15L524.1,374.2z"/>
</g>
</svg>
