<?xml version="1.0" encoding="UTF-8"?>
<svg width="14px" height="18px" viewBox="0 0 14 18" version="1.1" xmlns="http://www.w3.org/2000/svg" xmlns:xlink="http://www.w3.org/1999/xlink">
    <!-- Generator: sketchtool 40.1 (33804) - http://www.bohemiancoding.com/sketch -->
    <title>E9119031-F359-463F-A66D-9AA1FF01C143</title>
    <desc>Created with sketchtool.</desc>
    <defs></defs>
    <g id="Page-1" stroke="none" stroke-width="1" fill="none" fill-rule="evenodd">
        <g id="V06---Views-Modal" transform="translate(-1035.000000, -427.000000)" fill="#686868">
            <g id="Modal" transform="translate(350.000000, 138.000000)">
                <g id="Selections" transform="translate(30.000000, 231.000000)">
                    <g id="Group-3" transform="translate(0.000000, 43.000000)">
                        <g id="Group-2">
                            <g id="View-Copy">
                                <path d="M656,31 C656,32.1 656.9,33 658,33 L666,33 C667.1,33 668,32.1 668,31 L668,19 L656,19 L656,31 L656,31 Z M658.46,23.88 L659.87,22.47 L662,24.59 L664.12,22.47 L665.53,23.88 L663.41,26 L665.53,28.12 L664.12,29.53 L662,27.41 L659.88,29.53 L658.47,28.12 L660.59,26 L658.46,23.88 L658.46,23.88 Z M665.5,16 L664.5,15 L659.5,15 L658.5,16 L655,16 L655,18 L669,18 L669,16 L665.5,16 Z" id="Delete"></path>
                            </g>
                        </g>
                    </g>
                </g>
            </g>
        </g>
    </g>
</svg>