<?xml version="1.0" encoding="utf-8"?>
<!-- Generator: Adobe Illustrator 18.1.1, SVG Export Plug-In . SVG Version: 6.00 Build 0)  -->
<svg version="1.1" id="Layer_1" xmlns="http://www.w3.org/2000/svg" xmlns:xlink="http://www.w3.org/1999/xlink" x="0px" y="0px"
	 viewBox="0 0 960 560" enable-background="new 0 0 960 560" xml:space="preserve">
<path fill="#757575" d="M658.5,459c-120.1,0-238.4,0-356.6,0c-5.3-55.3-6-77.2,49.3-103.8c85.3-41,171.9-39.9,257.5,0.5
	c10.8,5.1,20.8,12.5,30,20.1c13.5,11.3,20.6,26,19.8,44.2C658.1,432.5,658.5,445,658.5,459z M478.5,101
	c-48.9,0.3-88.7,40.3-88.8,89.3c-0.1,49.5,40.2,89.9,89.6,89.9c49.4,0,89.7-40.5,89.5-90C568.7,140.7,528.1,100.7,478.5,101z"/>
</svg>
