<?xml version="1.0" standalone="no"?>
<!DOCTYPE svg PUBLIC "-//W3C//DTD SVG 1.1//EN" "http://www.w3.org/Graphics/SVG/1.1/DTD/svg11.dtd" >
<!--
2016-11-4: Created with FontForge (http://fontforge.org)
-->
<svg xmlns="http://www.w3.org/2000/svg" xmlns:xlink="http://www.w3.org/1999/xlink" version="1.1">
<metadata>
Created by FontForge 20160407 at Fri Nov  4 11:00:02 2016
 By Victor Vila Ases
Copyright (c) 2016, Victor Vila Ases
</metadata>
<defs>
<font id="reevooclientportaldings" horiz-adv-x="512" >
  <font-face 
    font-family="reevooclientportaldings"
    font-weight="400"
    font-stretch="normal"
    units-per-em="512"
    panose-1="2 0 5 3 0 0 0 0 0 0"
    ascent="448"
    descent="-64"
    bbox="-0.25 -64 1781 448"
    underline-thickness="25.6"
    underline-position="-51.2"
    unicode-range="U+0020-F13D"
  />
    <missing-glyph />
    <glyph glyph-name="space" unicode=" " horiz-adv-x="200" 
 />
    <glyph glyph-name="uniF12B" unicode="&#xf12b;" horiz-adv-x="445" 
d="M393 415c34 0 51 -17 52 -50v-255c0 -32 -18 -50 -51 -50h-292c-10 0 -16 -3 -23 -10c-24 -26 -51 -52 -79 -81v18v375c0 36 16 53 52 53h341zM344 158c1 0 3 -4 2 -6v2c-1 8 -1 14 -2 21c-3 26 -15 49 -34 68c-17 17 -35 26 -57 33c-17 4 -33 8 -50 9h-5v62
c-41 -33 -79 -66 -119 -99c39 -32 78 -66 119 -99v4v53v5s2 1 3 1c37 8 72 0 103 -20c16 -10 29 -21 40 -34z" />
    <glyph glyph-name="uniF118" unicode="&#xf118;" horiz-adv-x="384" 
d="M288 341c53 0 96 -41 96 -96c0 -75 -81 -134 -192 -245c-111 111 -192 170 -192 245c0 55 43 96 96 96c43 0 81 -28 96 -64c15 36 53 64 96 64z" />
    <glyph glyph-name="uniF129" unicode="&#xf129;" horiz-adv-x="446" 
d="M314 249l-57 -57l57 -57l-35 -33l-55 57l-57 -57l-35 33l57 57l-57 57l35 33l57 -57l55 57zM430 279c11 -27 16 -56 16 -87c0 -47 -12 -90 -37 -124c-23 -36 -58 -64 -98 -81c-27 -11 -56 -18 -87 -18c-46 0 -89 13 -125 38c-36 23 -64 58 -81 98c-11 27 -18 56 -18 87
c0 47 14 89 38 125s58 64 99 81c27 11 56 18 87 18c46 0 88 -14 124 -39c36 -23 65 -58 82 -98zM388 122c9 22 15 45 15 70c0 37 -11 71 -30 100c-20 28 -47 52 -79 65c-22 9 -45 14 -70 14c-37 0 -71 -11 -100 -30c-28 -20 -52 -47 -65 -79c-9 -22 -14 -45 -14 -70
c0 -37 11 -71 30 -100c20 -28 47 -52 79 -65c22 -9 45 -14 70 -14c37 0 71 11 100 30c28 20 51 47 64 79z" />
    <glyph glyph-name="uniF122" unicode="&#xf122;" horiz-adv-x="487" 
d="M98 34v25h173v-25h-173zM98 133v24h173v-24h-173zM98 84v24h173v-24h-173zM98 182v25h173v-25h-173zM320 222l49 50v-299v0c0 -20 -16 -37 -36 -37v0h-296v0c-20 0 -37 17 -37 37v320c0 20 17 37 37 37h275l-49 -50h-213v-295h270v237zM301 356c0 7 5 13 12 13h84
c7 0 12 -6 12 -13v-83c0 -7 -5 -12 -12 -12s-13 5 -13 12v53l-80 -80c-2 -2 -6 -3 -9 -3c-7 0 -12 5 -12 12c0 3 1 7 3 9l80 80h-53c-7 0 -12 5 -12 12zM450 448c20 0 37 -17 37 -37v-321c0 -20 -17 -37 -37 -37h-120v50h108v295h-271v-93h-49v106c0 20 17 37 37 37h295z
" />
    <glyph glyph-name="uniF13C" unicode="&#xf13c;" horiz-adv-x="328" 
d="M328 28h-326c-5 51 -6 71 45 95c78 37 158 37 236 0c10 -5 19 -12 27 -19c12 -10 19 -23 18 -40v-36zM164 356c45 0 82 -37 82 -82s-37 -82 -82 -82s-82 37 -82 82s37 82 82 82z" />
    <glyph glyph-name="uniF119" unicode="&#xf119;" horiz-adv-x="351" 
d="M309 368c28 0 42 -14 42 -42c0 -99 -1 -197 -1 -296v-13c-21 23 -42 43 -62 63c-5 5 -10 7 -18 7h-230c-26 0 -40 14 -40 40v200c0 27 14 41 41 41h268zM189 146c1 3 2 5 2 8s-1 5 -2 8s-2 5 -4 7s-4 4 -7 5s-6 1 -9 1s-5 0 -8 -1s-5 -3 -7 -5s-4 -4 -5 -7s-1 -5 -1 -8
s0 -5 1 -8s3 -5 5 -7s4 -3 7 -4s5 -2 8 -2s6 1 9 2s5 2 7 4s3 4 4 7zM223 257c2 4 3 10 3 16c0 7 -2 13 -4 18s-6 9 -10 13s-10 7 -16 9s-13 3 -21 3c-5 0 -10 0 -15 -1s-9 -2 -13 -4l-12 -6s-7 -4 -10 -7l10 -15c2 -3 4 -5 8 -5c2 0 3 0 5 1s3 2 5 3s5 2 8 3s7 2 11 2
c6 0 10 -2 13 -5s5 -6 5 -11c0 -4 -1 -8 -3 -11s-3 -6 -6 -8s-6 -5 -9 -7s-5 -4 -8 -6s-5 -5 -7 -8s-2 -5 -2 -9v-2v-1l3 -20h26l3 17c1 3 2 5 4 7s5 4 8 6s6 5 9 7s5 6 8 9s5 8 7 12z" />
    <glyph glyph-name="uniF117" unicode="&#xf117;" 
d="M405 256l-149 -149l-149 149h85v128h128v-128h85zM107 64h298v-43h-298v43zM0 448h512v-512h-512v512z" />
    <glyph glyph-name="uniF11C" unicode="&#xf11c;" horiz-adv-x="186" 
d="M152 233h12c12 -1 22 -10 22 -22v-118c0 -12 -10 -22 -22 -22h-141c-13 0 -23 9 -23 22v118c0 13 10 21 23 22h12v24c0 33 26 58 58 58s59 -25 59 -58v-24zM129 234c0 10 1 19 0 28c-2 18 -16 30 -33 31c-16 1 -33 -9 -37 -25c-2 -11 -2 -22 -3 -34h73zM93 175
c-13 0 -23 -10 -23 -23s10 -23 23 -23s23 10 23 23s-10 23 -23 23z" />
    <glyph glyph-name="uniF130" unicode="&#xf130;" horiz-adv-x="571" 
d="M252 135c-14 -8 -34 -23 -46 -34c-9 -8 -22 -24 -29 -34h-123c-35 0 -54 19 -54 53v274c0 36 18 54 54 54h369c36 0 54 -19 54 -54v-192c-27 23 -55 46 -84 69l-24 19v-31v-88l-14 -2s-17 -3 -25 -5s-17 -4 -24 -6c-15 -5 -40 -15 -54 -23zM56 348v-1
c58 -37 116 -73 175 -109c2 -1 6 -1 8 -1s5 0 7 1c59 36 118 73 176 110c3 2 6 7 7 11v40c-6 -4 -10 -5 -15 -8c-55 -34 -110 -68 -164 -103c-3 -2 -8 -4 -11 -4s-9 2 -12 4c-54 35 -108 69 -163 103c-5 3 -9 5 -16 9c0 -5 -1 -14 -1 -19s1 -13 1 -18c1 -5 4 -12 8 -15z
M386 111l13 3h3h13v84c53 -44 104 -87 156 -131l-108 -90l-48 -40v81h-14h-8c-19 0 -51 -3 -70 -5c-13 -2 -33 -6 -45 -9s-32 -10 -43 -17c-13 -8 -31 -22 -42 -32c2 14 8 34 14 47c7 15 22 36 34 47c10 10 29 23 41 30c13 7 34 16 48 20c6 2 14 4 22 6c12 3 24 4 34 6z" />
    <glyph glyph-name="uniF106" unicode="&#xf106;" 
d="M-0 403v0v45h45v-45h-45zM89 448v0h245v-45h-245v45zM423 270v0h89v-45h-89v-89h-45v89h-89v45h89v89h45v-89zM89 225v0v45h156v-45h-156zM334 314h-245v45h245v-45zM-0 225v0v45h45v-45h-45zM-0 314v0v45h45v-45h-45z" />
    <glyph glyph-name="uniF138" unicode="&#xf138;" horiz-adv-x="247" 
d="M49 209c19 -38 53 -70 91 -91l29 29c3 3 5 4 9 4h55c8 0 14 -6 14 -14v-55c0 -8 -6 -14 -14 -14c-129 0 -233 105 -233 234c0 8 6 14 14 14h55c8 0 13 -6 13 -14v-55c0 -4 -1 -7 -4 -10z" />
    <glyph glyph-name="uniF10D" unicode="&#xf10d;" horiz-adv-x="148" 
d="M148 251l-59 -59l59 -59l-14 -15l-60 59l-59 -59l-15 15l59 59l-59 59l15 15l59 -59l60 59z" />
    <glyph glyph-name="uniF113" unicode="&#xf113;" horiz-adv-x="486" 
d="M325 391v-106h117zM486 -45c0 -10 -8 -19 -19 -19h-396c-11 0 -20 9 -20 19v94c0 10 9 19 20 19s19 -9 19 -19v-75h358v273h-4h-138c-11 0 -19 9 -19 19v144h-197v-191c0 -10 -8 -19 -19 -19s-20 9 -20 19v210c0 10 9 19 20 19h240c5 0 10 -2 14 -5l155 -141
c4 -3 6 -9 6 -14v-333zM0 140c0 10 9 19 19 19h195l-61 52c-8 7 -8 18 -1 26s18 9 26 2l97 -85c4 -4 7 -8 7 -13s-3 -11 -7 -14l-97 -84c-4 -3 -8 -5 -12 -5c-5 0 -10 2 -14 6c-7 8 -7 19 1 26l60 52h-194c-10 0 -19 8 -19 18z" />
    <glyph glyph-name="uniF109" unicode="&#xf109;" horiz-adv-x="158" 
d="M30 320l128 -128l-128 -128l-30 30l98 98l-98 98z" />
    <glyph glyph-name="uniF12A" unicode="&#xf12a;" horiz-adv-x="510" 
d="M492 430c10 -10 18 -30 18 -44c0 -15 -9 -35 -19 -45l-29 -30v-247c0 -8 -7 -15 -15 -15v0h-65l-110 -109c-2 -2 -7 -4 -10 -4c-8 0 -16 7 -16 15v98h-231c-8 0 -15 7 -15 15v277c0 8 7 15 15 15v0h314l74 74c10 10 30 18 44 18s35 -8 45 -18zM278 205l45 9l-46 46
l-9 -45v-2c0 -5 3 -8 8 -8h2zM340 229l109 108l-49 49l-108 -109zM471 360v0c5 5 9 16 9 23c0 19 -16 34 -35 34c-7 0 -17 -4 -22 -9l-7 -7l48 -48z" />
    <glyph glyph-name="uniF111" unicode="&#xf111;" horiz-adv-x="302" 
d="M302 257l-151 -151l-151 151h302z" />
    <glyph glyph-name="uniF112" unicode="&#xf112;" horiz-adv-x="299" 
d="M43 149v-64h64v-42h-107v106h43zM0 235v106h107v-42h-64v-64h-43zM256 85v64h43v-106h-107v42h64zM192 341h107v-106h-43v64h-64v42z" />
    <glyph glyph-name="uniF11F" unicode="&#xf11f;" horiz-adv-x="341" 
d="M0 277v86h85v-86h-85zM128 21v86h85v-86h-85zM0 21v86h85v-86h-85zM0 149v86h85v-86h-85zM128 149v86h85v-86h-85zM256 363h85v-86h-85v86zM128 277v86h85v-86h-85zM256 149v86h85v-86h-85zM256 21v86h85v-86h-85z" />
    <glyph glyph-name="uniF139" unicode="&#xf139;" horiz-adv-x="375" 
d="M119 102l227 227l29 -30l-256 -256l-119 119l30 30z" />
    <glyph glyph-name="uniF10F" unicode="&#xf10f;" horiz-adv-x="392" 
d="M0 -2v77c0 2 2 6 4 8c77 77 154 156 233 233l2 2c26 -28 53 -53 81 -81c-2 -2 -5 -7 -9 -9c-75 -75 -146 -147 -221 -222c-4 -6 -11 -8 -22 -8h-68zM346 262l-79 79c13 13 25 28 40 43c9 9 19 7 28 -2l51 -51c9 -9 9 -19 0 -28c-13 -15 -27 -28 -40 -41z" />
    <glyph glyph-name="uniF114" unicode="&#xf114;" horiz-adv-x="401" 
d="M201 329c92 0 158 -48 196 -131c0 -2 4 -8 4 -8s-2 -7 -4 -9c-41 -83 -106 -128 -196 -128c-92 0 -156 45 -197 128c-2 4 -4 11 -4 11s2 7 4 9c38 83 105 128 197 128zM201 100c51 0 91 41 91 92c0 49 -40 92 -89 92c-51 0 -92 -41 -92 -90c-2 -53 39 -94 90 -94z
M256 190c0 -30 -25 -53 -55 -53s-56 25 -54 55c0 30 26 55 56 53c30 0 53 -25 53 -55z" />
    <glyph glyph-name="uniF12C" unicode="&#xf12c;" horiz-adv-x="341" 
d="M171 363l170 -171l-170 -171l-30 30l119 120h-260v42h260l-119 120z" />
    <glyph glyph-name="uniF104" unicode="&#xf104;" horiz-adv-x="299" 
d="M299 0l-150 64l-149 -64v343c0 23 18 41 41 41h217c21 0 41 -18 41 -41v-343z" />
    <glyph glyph-name="uniF125" unicode="&#xf125;" horiz-adv-x="384" 
d="M56 328c75 75 197 75 272 0s75 -197 0 -272s-197 -75 -272 0s-75 197 0 272zM309 211h-98v98h-38v-98h-97v-38h97v-97h38v97h98v38z" />
    <glyph glyph-name="uniF131" unicode="&#xf131;" horiz-adv-x="446" 
d="M197 147c-13 -8 -26 -16 -36 -28c-9 -8 -15 -17 -22 -27h-97c-28 0 -42 15 -42 42v216c0 28 14 43 42 43h290c28 0 42 -15 42 -43v-151c-21 18 -43 35 -66 53l-19 16v-25v-69l-11 -1s-13 -2 -20 -3s-13 -3 -19 -5c-15 -4 -29 -10 -42 -18zM42 314c46 -29 91 -57 138 -85
c3 -2 10 -2 13 0c47 28 92 57 138 86c2 2 5 5 5 8v32c-6 -2 -9 -5 -12 -7c-43 -28 -87 -54 -129 -81c-7 -3 -11 -4 -18 0c-43 28 -86 54 -129 81c-3 2 -6 5 -12 8c0 -11 -1 -20 0 -29c0 -4 3 -11 6 -13zM302 129c3 0 7 1 10 3h2h1v0h9v65c42 -34 81 -69 122 -103
c-25 -21 -56 -48 -84 -71c-14 -12 -28 -22 -38 -31v63h-11h-7c-10 0 -31 0 -54 -3c-11 -1 -24 -4 -36 -7s-24 -7 -34 -13c-12 -8 -23 -17 -33 -26c3 13 6 27 12 38c7 13 16 26 27 37c10 9 21 16 32 23c12 7 25 12 38 16c4 1 10 3 17 4c9 1 19 4 27 5z" />
    <glyph glyph-name="uniF108" unicode="&#xf108;" horiz-adv-x="158" 
d="M158 290l-98 -98l98 -98l-30 -30l-128 128l128 128z" />
    <glyph glyph-name="uniF10C" unicode="&#xf10c;" horiz-adv-x="302" 
d="M0 127l151 151l151 -151h-302z" />
    <glyph glyph-name="uniF10B" unicode="&#xf10b;" horiz-adv-x="299" 
d="M0 107v42h107v-106h-43v64h-64zM64 277v64h43v-106h-107v42h64zM192 43v106h107v-42h-64v-64h-43zM235 277h64v-42h-107v106h43v-64z" />
    <glyph glyph-name="uniF116" unicode="&#xf116;" 
d="M256 448v0c142 0 256 -115 256 -256s-114 -256 -256 -256c-141 0 -256 115 -256 256s115 256 256 256zM364 38v0l-28 124l95 82l-126 11l-49 116l-49 -116l-126 -11l95 -82l-28 -124l108 66z" />
    <glyph glyph-name="uniF101" unicode="&#xf101;" horiz-adv-x="385" 
d="M36 316v-282h280v-34h-282c-19 0 -34 15 -34 34v282h36zM352 386v0c19 0 36 -17 32 -36v-245c0 -19 -15 -35 -34 -35h-245c-19 0 -35 16 -35 35v245c0 19 18 36 37 36h245zM318 209h-2v36h-71v71h-34v-71h-70v-36h72v-70h34v70h71z" />
    <glyph glyph-name="uniF100" unicode="&#xf100;" horiz-adv-x="299" 
d="M262 384c23 0 37 -18 37 -41v-343l-150 64l-149 -64v343c0 23 24 41 45 41h217zM256 66v277h-213v-277l106 47z" />
    <glyph glyph-name="uniF11D" unicode="&#xf11d;" horiz-adv-x="412" 
d="M206 28h-160c-30 0 -46 16 -46 46v237c0 31 16 47 47 47h318c31 0 47 -16 47 -47v-237c0 -30 -16 -46 -46 -46h-160zM41 316c0 -12 0 -22 1 -32c1 -5 3 -11 7 -13c50 -32 100 -63 150 -94c3 -2 11 -2 14 0c51 31 101 62 151 94c3 2 7 7 7 10c1 11 0 22 0 35
c-6 -3 -10 -6 -14 -8c-47 -30 -94 -58 -141 -88c-7 -4 -13 -6 -20 -1c-47 30 -94 59 -141 89c-4 2 -8 5 -14 8z" />
    <glyph glyph-name="uniF10E" unicode="&#xf10e;" horiz-adv-x="445" 
d="M223 415c122 0 222 -101 222 -223s-100 -223 -222 -223s-223 101 -223 223s101 223 223 223zM222 346c-36 0 -66 -30 -65 -66c-1 -37 29 -67 66 -67c36 0 65 30 65 67s-29 66 -66 66zM352 103c1 1 1 3 3 3c-1 14 -11 25 -22 33c-12 8 -25 13 -38 17s-27 8 -41 10
c-3 0 -31 4 -31 3c0 1 -28 -3 -30 -3c-14 -2 -29 -6 -42 -10s-26 -9 -37 -17s-22 -19 -23 -33l3 -3c28 -41 77 -69 129 -70c53 0 101 28 129 70z" />
    <glyph glyph-name="uniF13A" unicode="&#xf13a;" horiz-adv-x="299" 
d="M21 43v256h256v-256c0 -23 -19 -43 -42 -43h-171c-23 0 -43 20 -43 43zM277 363c13 0 22 -9 22 -22v-21h-299v21c0 13 8 22 21 22h54l21 21h107l21 -21h53z" />
    <glyph glyph-name="uniF121" unicode="&#xf121;" horiz-adv-x="527" 
d="M70 290v32h241v-32h-241zM336 82l87 89l22 -22l-109 -112l-55 56v0l22 22zM479 219c26 -27 48 -79 48 -117s-22 -90 -48 -117s-77 -49 -115 -49s-90 22 -116 49l-9 9h-239v454h383v-181c31 -4 74 -25 96 -48zM32 26h186c-7 14 -15 39 -17 55h-131v30h130c1 11 4 29 7 40
h-137v30h149c6 12 20 29 29 38v1h-178v33h224c15 7 40 14 56 15v148h-318v-390zM457 7c21 22 39 64 39 95s-18 73 -39 95s-63 40 -93 40s-73 -18 -94 -40s-39 -64 -39 -95s18 -73 39 -95s64 -39 94 -39s72 17 93 39z" />
    <glyph glyph-name="uniF137" unicode="&#xf137;" horiz-adv-x="85" 
d="M43 277c-23 0 -43 20 -43 43s20 43 43 43s42 -20 42 -43s-19 -43 -42 -43zM43 235c23 0 42 -20 42 -43s-19 -43 -42 -43s-43 20 -43 43s20 43 43 43zM43 107c23 0 42 -20 42 -43s-19 -43 -42 -43s-43 20 -43 43s20 43 43 43z" />
    <glyph glyph-name="uniF126" unicode="&#xf126;" horiz-adv-x="597" 
d="M0 -64v199l427 57l-427 57v199l597 -256z" />
    <glyph glyph-name="uniF105" unicode="&#xf105;" 
d="M0 277v0v57h57v-57h-57zM0 164v0v56h57v-56h-57zM0 391v0v57h57v-57h-57zM114 277v0v57h398v-57h-398zM114 164v0v56h398v-56h-398zM114 448v0h398v-57h-398v57z" />
    <glyph glyph-name="uniF13D" unicode="&#xf13d;" horiz-adv-x="367" 
d="M260 376l107 -108v-152l-107 -107h-152l-108 107v152l108 108h152zM184 84c15 0 26 12 26 27s-11 26 -26 26s-27 -11 -27 -26s12 -27 27 -27zM204 172v122h-41v-122h41z" />
    <glyph glyph-name="uniF115" unicode="&#xf115;" horiz-adv-x="342" 
d="M171 362c94 0 171 -77 171 -171s-77 -171 -171 -171s-171 77 -171 171s77 171 171 171zM191 63v42h-43v-42h43zM191 149c0 38 61 45 61 103c0 41 -36 66 -76 66c-42 0 -66 -26 -66 -26l24 -30s18 15 38 15c19 0 34 -12 34 -29c0 -36 -58 -45 -58 -96v-16h43v13z" />
    <glyph glyph-name="uniF103" unicode="&#xf103;" 
d="M128 192v0l128 128l128 -128h-96v-128h-64v128h-96zM0 448v0h512v-64h-512v64z" />
    <glyph glyph-name="uniF136" unicode="&#xf136;" horiz-adv-x="397" 
d="M397 239l-109 -94l32 -143l-122 75l-123 -75l34 143l-109 94l141 13l57 130l56 -130z" />
    <glyph glyph-name="uniF123" unicode="&#xf123;" horiz-adv-x="564" 
d="M521 405c24 -24 43 -70 43 -103s-19 -79 -43 -103l-257 -257c-3 -3 -9 -5 -13 -5c-10 0 -18 8 -18 18c0 4 2 10 5 13l258 257c18 18 32 52 32 77c0 60 -50 110 -110 110c-25 0 -59 -14 -77 -32l-283 -284c-12 -12 -21 -34 -21 -51c0 -40 32 -73 72 -73c17 0 40 9 52 21
l270 271c6 6 11 17 11 25c0 20 -17 37 -37 37c-8 0 -19 -5 -25 -11l-232 -232c-3 -3 -9 -5 -13 -5c-10 0 -18 8 -18 18c0 4 2 10 5 13l232 232c12 12 34 21 51 21c40 0 73 -33 73 -73c0 -17 -9 -39 -21 -51l-284 -281c-3 -3 -7 -6 -11 -7c-14 -8 -37 -14 -53 -14
c-60 0 -109 49 -109 109c0 25 14 59 32 77l283 283c24 24 70 43 103 43s79 -19 103 -43z" />
    <glyph glyph-name="uniF120" unicode="&#xf120;" horiz-adv-x="385" 
d="M56 328c75 75 197 75 272 0s75 -197 0 -272s-197 -75 -272 0s-75 197 0 272zM309 211h-233v-38h233v38z" />
    <glyph glyph-name="uniF134" unicode="&#xf134;" 
d="M473 448c22 0 39 -17 39 -39v-434c0 -22 -17 -39 -39 -39h-434c-22 0 -39 17 -39 39v434c0 22 17 39 39 39h434zM344 315c-22 0 -39 -18 -39 -40s17 -40 39 -40s40 18 40 40s-18 40 -40 40zM164 315c-22 0 -40 -18 -40 -40s18 -40 40 -40s40 18 40 40s-18 40 -40 40z
M399 137c4 10 0 22 -10 26s-22 0 -26 -10c-19 -43 -63 -71 -112 -71c-51 0 -94 28 -112 71c-3 7 -10 12 -18 12c-2 0 -5 -1 -7 -2c-10 -4 -15 -15 -11 -25c24 -57 82 -95 148 -95c65 0 123 37 148 94z" />
    <glyph glyph-name="uniF13B" unicode="&#xf13b;" horiz-adv-x="398" 
d="M28 -7v0v341h342v-341c0 -31 -26 -57 -57 -57h-228c-31 0 -57 26 -57 57zM98 195v0l61 -60l-60 -60l40 -40l60 60l60 -60l41 40l-61 60l61 60l-41 41l-60 -61l-60 61zM299 420h99v-57h-398v57h100l28 28h142z" />
    <glyph glyph-name="uniF110" unicode="&#xf110;" horiz-adv-x="500" 
d="M498 154l-128 -88c-1 -1 -2 -1 -3 -1s-2 0 -3 1c-2 1 -2 4 -2 6v56l-120 -1c-3 0 -5 3 -5 6v51c0 3 2 5 5 5h120v72c0 2 0 5 2 6s4 1 6 0l128 -105c1 -1 2 -2 2 -4s-1 -3 -2 -4zM230 299l149 109h-298zM460 229l-40 31v129l-187 -138c-2 -1 -4 -1 -6 0l-187 138v-221h164
c0 -2 -1 -3 -1 -5v-35h-198c-3 0 -5 2 -5 5v310c0 3 2 5 5 5h450c3 0 5 -2 5 -5v-122v-92z" />
    <glyph glyph-name="uniF12E" unicode="&#xf12e;" 
d="M473 448c22 0 39 -17 39 -39v-434c0 -22 -17 -39 -39 -39h-434c-22 0 -39 17 -39 39v434c0 22 17 39 39 39h434zM343 316c-22 0 -40 -18 -40 -40s18 -40 40 -40s40 18 40 40s-18 40 -40 40zM162 316c-22 0 -40 -18 -40 -40s18 -40 40 -40s40 18 40 40s-18 40 -40 40z
M394 47c10 4 14 15 10 25c-25 57 -83 94 -148 94c-66 0 -124 -37 -148 -94c-4 -10 1 -22 11 -26c2 -1 5 -1 7 -1c8 0 15 5 18 12c18 43 61 71 112 71c49 0 93 -28 112 -71c4 -10 16 -14 26 -10z" />
    <glyph glyph-name="uniF12D" unicode="&#xf12d;" horiz-adv-x="498" 
d="M70 -64c-39 0 -70 31 -70 70s31 70 70 70s70 -31 70 -70s-31 -70 -70 -70zM0 434v0c275 0 498 -223 498 -498h-91c0 225 -182 407 -407 407v91zM0 253v0c175 0 317 -142 317 -317h-91c0 125 -101 226 -226 226v91z" />
    <glyph glyph-name="uniF12F" unicode="&#xf12f;" horiz-adv-x="331" 
d="M237 150l94 -95l-28 -28l-95 94v15l-5 5c-21 -18 -49 -29 -80 -29c-68 0 -123 55 -123 123s55 123 123 123s123 -55 123 -123c0 -31 -12 -59 -30 -80l6 -5h15zM123 150c47 0 85 38 85 85s-38 85 -85 85s-85 -38 -85 -85s38 -85 85 -85z" />
    <glyph glyph-name="uniF132" unicode="&#xf132;" horiz-adv-x="486" 
d="M481 123c4 -2 5 -7 3 -11l-53 -90c-2 -4 -8 -5 -12 -3l-64 26c-12 -10 -26 -18 -41 -24l-11 -69c0 -5 -3 -8 -8 -8h-105c-5 0 -9 3 -9 8l-10 69c-15 6 -29 14 -41 24l-64 -25c-4 -2 -10 -1 -12 3l-53 90c-2 4 -1 10 3 12l54 44c-1 8 -1 15 -1 23s0 16 1 23l-54 45
c-4 2 -5 8 -3 12l54 90c2 4 8 5 12 3l63 -26c12 10 26 18 41 24l10 69c0 5 4 9 9 9h105c5 0 9 -4 9 -9l10 -69c15 -6 29 -14 42 -24l64 25c4 2 10 1 12 -3l52 -91c2 -4 1 -10 -3 -12l-54 -44c1 -7 1 -15 1 -22c0 -8 -1 -16 -2 -23zM242 104c49 0 88 40 88 88s-40 88 -88 88
s-88 -40 -88 -88s40 -88 88 -88z" />
    <glyph glyph-name="uniF10A" unicode="&#xf10a;" horiz-adv-x="256" 
d="M128 277l128 -128l-30 -30l-98 99l-98 -99l-30 30z" />
    <glyph glyph-name="uniF107" unicode="&#xf107;" horiz-adv-x="256" 
d="M226 265l30 -30l-128 -128l-128 128l30 30l98 -99z" />
    <glyph glyph-name="uniF128" unicode="&#xf128;" horiz-adv-x="341" 
d="M290 311l51 52v-150h-149l68 69c-23 23 -53 38 -89 38c-70 0 -128 -58 -128 -128s58 -128 128 -128c55 0 102 36 119 85h45c-19 -73 -85 -128 -164 -128c-94 0 -171 77 -171 171s77 171 171 171c47 0 89 -20 119 -52z" />
    <glyph glyph-name="uniF127" unicode="&#xf127;" horiz-adv-x="1781" 
d="M593 298h81c28 0 40 -2 51 -7c25 -12 41 -36 41 -70c0 -30 -15 -58 -42 -69v0s3 -4 8 -13l52 -94h-51l-50 94h-44v-94h-46v253zM680 179c25 0 40 15 40 40c0 24 -10 39 -46 39h-35v-79h41zM879 230c52 0 80 -38 80 -86c0 -5 -1 -17 -1 -17h-125c3 -32 27 -48 54 -48
c29 0 53 20 53 20l17 -32s-28 -26 -73 -26c-60 0 -97 42 -97 94c0 56 38 95 92 95zM914 158c-1 24 -16 37 -36 37c-23 0 -39 -14 -43 -37h79zM1075 230c52 0 80 -38 80 -86c0 -5 -1 -17 -1 -17h-125c3 -32 28 -48 55 -48c29 0 52 20 52 20l17 -32s-28 -26 -73 -26
c-60 0 -97 42 -97 94c0 56 38 95 92 95zM1110 158c-1 24 -16 37 -36 37c-23 0 -39 -14 -43 -37h79zM1168 227h48l44 -141h1l45 141h48l-66 -183h-54zM1459 230c55 0 99 -40 99 -95c0 -56 -44 -94 -99 -94s-100 38 -100 94c0 55 45 95 100 95zM1459 79c29 0 53 22 53 56
c0 33 -24 57 -53 57s-54 -24 -54 -57c0 -34 25 -56 54 -56zM1682 230c55 0 99 -40 99 -95c0 -56 -44 -94 -99 -94s-99 38 -99 94c0 55 44 95 99 95zM1682 79c29 0 54 22 54 56c0 33 -25 57 -54 57s-54 -24 -54 -57c0 -34 25 -56 54 -56zM106 404c59 0 105 -50 105 -105
c0 -11 -2 -62 -60 -96c-22 -13 -40 -39 -6 -64c6 -4 2 -10 -3 -10s-21 4 -46 15c-54 25 -96 86 -96 154c1 59 47 106 106 106zM332 255c59 0 105 -48 106 -107c0 -68 -42 -128 -96 -153c-25 -11 -42 -15 -47 -15s-8 5 -2 9c34 25 16 51 -6 64c-58 34 -60 86 -60 97
c0 55 46 105 105 105z" />
    <glyph glyph-name="uniF124" unicode="&#xf124;" horiz-adv-x="299" 
d="M299 171h-128v-128h-43v128h-128v42h128v128h43v-128h128v-42z" />
    <glyph glyph-name="uniF11A" unicode="&#xf11a;" horiz-adv-x="361" 
d="M181 407c100 0 180 -81 180 -181s-80 -181 -180 -181h-4l-85 -53l2 76c-56 30 -94 90 -94 158c0 100 81 181 181 181zM203 120v149h-47v-149h47zM181 288c-15 0 -25 12 -25 23c0 13 10 22 25 22c15 2 24 -9 24 -22s-9 -23 -24 -23z" />
    <glyph glyph-name="uniF11B" unicode="&#xf11b;" horiz-adv-x="341" 
d="M341 213v-42h-260l120 -120l-30 -30l-171 171l171 171l30 -30l-120 -120h260z" />
    <glyph glyph-name="uniF102" unicode="&#xf102;" 
d="M128 192h96v128h64v-128h96l-128 -128l-128 128v0zM0 448v0h512v-64h-512v64z" />
    <glyph glyph-name="uniF11E" unicode="&#xf11e;" horiz-adv-x="299" 
d="M299 171h-299v42h299v-42z" />
    <glyph glyph-name="uniF133" unicode="&#xf133;" horiz-adv-x="383" 
d="M0 316h383v-43h-383v43zM0 214h383v-44h-383v44zM0 111h383v-43h-383v43z" />
    <glyph glyph-name="uniF135" unicode="&#xf135;" horiz-adv-x="399" 
d="M198 294l-23 -57l-9 -19l-21 -3l-60 -6l45 -38l17 -13l-4 -21l-15 -62l51 32l19 10l17 -10l52 -32l-15 62l-5 21l18 13l46 40l-59 7l-22 2l-8 19zM198 382l58 -130l143 -13l-109 -94l32 -143l-124 75l-121 -75l32 143l-109 94l141 13z" />
  </font>
</defs>
</svg>
